<?xml version="1.0" ?><svg data-name="Слой 1" id="Слой_1" viewBox="0 0 128 128" xmlns="http://www.w3.org/2000/svg"><title/><path d="M88,24C88,9.86,78.13,0,64,0S40,9.86,40,24V36H24v92h80V36H88ZM48,24c0-9.7,6.28-16,16-16s16,6.27,16,16V36H48Zm27.59,80.12A17.55,17.55,0,0,1,68,107.26V114H60v-6.9c-6.95-1.5-13.13-6.55-13.13-14.72h8c0,5.7,6.23,7.2,9.53,7.2a10.74,10.74,0,0,0,6.36-1.87,5.83,5.83,0,0,0,2.36-5c0-3.33-3.73-5-9.87-7.42-6.55-2.55-14.7-5.73-14.7-14.5a13.49,13.49,0,0,1,5.38-11A16.62,16.62,0,0,1,60,57V50h8v6.72c6.58,1.16,12.4,5.78,12.4,13.62h-8c0-4.67-4.85-5.92-7.72-5.92s-8.12,1.35-8.12,6.4c0,3.08,3.63,4.72,9.6,7,6.67,2.6,15,5.83,15,14.87A13.88,13.88,0,0,1,75.59,104.09Z"/></svg>